<?xml version="1.0" standalone="no"?>
<!DOCTYPE svg PUBLIC "-//W3C//DTD SVG 20010904//EN"
 "http://www.w3.org/TR/2001/REC-SVG-20010904/DTD/svg10.dtd">
<svg version="1.0" xmlns="http://www.w3.org/2000/svg"
 width="88.000000pt" height="88.000000pt" viewBox="0 0 88.000000 88.000000"
 preserveAspectRatio="xMidYMid meet">

<g transform="translate(0.000000,88.000000) scale(0.100000,-0.100000)"
fill="#000000" stroke="none">
<path d="M376 780 c-41 -13 -85 -58 -96 -100 -5 -19 -8 -69 -7 -111 3 -70 6
-80 46 -140 35 -52 42 -70 38 -97 -5 -28 -2 -34 23 -47 16 -8 43 -15 60 -15
17 0 44 7 60 15 25 13 28 19 23 47 -4 27 3 45 38 97 40 61 43 69 46 145 4 95
-14 148 -56 166 -14 6 -42 20 -61 31 -37 20 -67 23 -114 9z"/>
<path d="M233 250 c-89 -29 -124 -61 -138 -127 l-7 -33 352 0 352 0 -7 33
c-14 66 -49 98 -138 127 l-51 17 -44 -31 c-38 -27 -52 -31 -112 -31 -60 0 -74
4 -112 31 l-44 31 -51 -17z"/>
</g>
</svg>
