<?xml version="1.0" standalone="no"?>
<!DOCTYPE svg PUBLIC "-//W3C//DTD SVG 20010904//EN"
 "http://www.w3.org/TR/2001/REC-SVG-20010904/DTD/svg10.dtd">
<svg version="1.0" xmlns="http://www.w3.org/2000/svg"
 width="22.000000pt" height="22.000000pt" viewBox="0 0 22.000000 22.000000"
 preserveAspectRatio="xMidYMid meet">

<g transform="translate(0.000000,22.000000) scale(0.100000,-0.100000)"
fill="#000000" stroke="none">
<path d="M68 199 c-10 -5 -18 -15 -18 -21 0 -5 -11 -19 -25 -30 -21 -16 -23
-23 -14 -35 17 -20 62 -41 77 -36 7 3 12 -5 12 -21 0 -31 -4 -32 -41 -5 -16
11 -29 16 -29 11 0 -4 18 -20 40 -35 l40 -26 40 26 c25 16 40 34 40 46 0 11 7
28 16 38 14 15 13 19 -12 38 -24 19 -28 19 -47 6 -28 -20 -57 -19 -57 1 0 8 4
13 9 9 11 -6 61 15 61 26 0 19 -64 25 -92 8z m5 -78 c23 -15 25 -20 14 -30
-11 -9 -20 -7 -41 10 -14 11 -24 25 -21 30 9 13 16 11 48 -10z m122 10 c3 -5
-7 -19 -21 -30 -21 -17 -30 -19 -41 -10 -11 10 -9 15 14 30 32 21 39 23 48 10z"/>
</g>
</svg>
