<?xml version="1.0" standalone="no"?>
<!DOCTYPE svg PUBLIC "-//W3C//DTD SVG 20010904//EN"
 "http://www.w3.org/TR/2001/REC-SVG-20010904/DTD/svg10.dtd">
<svg version="1.0" xmlns="http://www.w3.org/2000/svg"
 width="88.000000pt" height="88.000000pt" viewBox="0 0 88.000000 88.000000"
 preserveAspectRatio="xMidYMid meet">

<g transform="translate(0.000000,88.000000) scale(0.100000,-0.100000)"
fill="#000000" stroke="none">
<path d="M72 718 c-9 -9 -12 -85 -12 -279 0 -233 2 -268 16 -280 14 -11 18
-11 29 4 11 15 42 17 330 17 281 0 321 -2 337 -16 14 -14 20 -14 33 -4 13 11
15 53 15 280 0 234 -2 269 -16 281 -14 11 -18 11 -29 -4 -11 -15 -42 -17 -332
-17 -273 0 -322 2 -333 15 -15 18 -22 19 -38 3z m156 -110 c8 -8 12 -60 12
-169 0 -131 -3 -159 -16 -170 -11 -9 -20 -10 -32 -2 -15 9 -17 33 -20 168 -2
156 2 185 32 185 7 0 17 -5 24 -12z m122 -7 c5 -11 10 -83 10 -163 0 -153 -8
-184 -46 -176 -18 3 -19 14 -22 168 -1 90 0 170 2 177 8 20 44 15 56 -6z m115
-161 l0 -175 -25 0 -25 0 -3 165 c-1 90 0 170 3 178 3 7 15 12 27 10 23 -3 23
-4 23 -178z m120 158 c3 -13 4 -93 3 -178 -3 -144 -4 -155 -22 -158 -38 -8
-46 23 -46 183 0 104 4 155 12 163 19 19 47 14 53 -10z m113 10 c8 -8 12 -60
12 -169 0 -131 -3 -159 -16 -170 -11 -9 -20 -10 -32 -2 -15 9 -17 33 -20 168
-2 156 2 185 32 185 7 0 17 -5 24 -12z"/>
</g>
</svg>
