<?xml version="1.0" standalone="no"?>
<!DOCTYPE svg PUBLIC "-//W3C//DTD SVG 20010904//EN"
 "http://www.w3.org/TR/2001/REC-SVG-20010904/DTD/svg10.dtd">
<svg version="1.0" xmlns="http://www.w3.org/2000/svg"
 width="88.000000pt" height="88.000000pt" viewBox="0 0 88.000000 88.000000"
 preserveAspectRatio="xMidYMid meet">

<g transform="translate(0.000000,88.000000) scale(0.100000,-0.100000)"
fill="#000000" stroke="none">
<path d="M422 838 c-7 -7 -12 -27 -12 -45 0 -33 0 -33 -48 -33 -57 0 -90 -20
-94 -58 -2 -21 -9 -28 -30 -30 -40 -5 -58 -37 -58 -104 l0 -57 -35 -7 c-61
-11 -62 -25 -11 -107 41 -65 46 -80 46 -130 0 -52 2 -57 23 -57 12 0 43 7 69
17 44 16 50 16 107 -2 59 -18 63 -18 122 0 57 18 63 18 107 2 26 -10 57 -17
70 -17 20 0 22 5 22 57 0 50 5 65 46 130 51 82 50 96 -11 107 l-35 7 0 57 c0
67 -18 99 -58 104 -21 2 -28 9 -30 30 -4 38 -37 58 -94 58 -48 0 -48 0 -48 33
0 30 -14 57 -30 57 -3 0 -11 -5 -18 -12z m138 -173 l0 -45 45 0 45 0 0 -45 c0
-25 -4 -45 -8 -45 -4 0 -46 11 -93 25 -104 31 -109 31 -215 0 -47 -14 -90 -25
-95 -25 -5 0 -9 20 -9 45 l0 45 45 0 45 0 0 45 0 45 120 0 120 0 0 -45z m-300
-210 c10 -12 10 -18 0 -30 -27 -32 -71 -8 -56 30 3 8 14 15 24 15 11 0 25 -7
32 -15z m415 -15 c0 -30 -35 -40 -55 -15 -10 12 -10 18 0 30 20 25 55 15 55
-15z"/>
<path d="M65 159 c-12 -19 29 -46 90 -60 46 -10 64 -10 109 3 49 13 61 13 117
0 56 -14 69 -14 121 0 53 13 65 13 113 0 46 -13 64 -13 110 -3 65 15 106 43
88 62 -10 10 -23 9 -64 -4 -64 -21 -86 -21 -144 -1 -42 14 -51 14 -93 0 -57
-20 -88 -20 -143 0 -40 14 -49 14 -99 -2 -55 -17 -67 -16 -176 12 -12 3 -25 0
-29 -7z"/>
</g>
</svg>
