<svg xmlns="http://www.w3.org/2000/svg" xmlns:xlink="http://www.w3.org/1999/xlink" width="916.951" height="526.412" artist="Katerina Limpitsouni" role="img" source="https://undraw.co/" viewBox="0 0 916.951 526.412"><g id="Group_75" data-name="Group 75" transform="translate(-501.443 -281.12)"><path id="Path_1167-147" fill="#e6e6e6" d="M285.72,426.207a69,69,0,0,1,0-138h628a69,69,0,1,1,0,138Z" data-name="Path 1167" transform="translate(360.278 90)"/><path id="Path_1168-148" fill="#fff" d="M285.72,297.207a60,60,0,0,0,0,120h628a60,60,0,1,0,0-120Z" data-name="Path 1168" transform="translate(360.278 90)"/><rect id="Rectangle_349" width="2" height="120" fill="#e6e6e6" data-name="Rectangle 349" transform="translate(709.665 387.207)"/><rect id="Rectangle_350" width="2" height="120" fill="#e6e6e6" data-name="Rectangle 350" transform="translate(834.498 387.207)"/><rect id="Rectangle_351" width="2" height="120" fill="#e6e6e6" data-name="Rectangle 351" transform="translate(959.498 387.207)"/><rect id="Rectangle_352" width="2" height="120" fill="#e6e6e6" data-name="Rectangle 352" transform="translate(1083.498 387.207)"/><rect id="Rectangle_353" width="2" height="120" fill="#e6e6e6" data-name="Rectangle 353" transform="translate(1208.498 387.207)"/><path id="Path_1169-149" fill="#e6e6e6" d="M383.9,339.207a2.9,2.9,0,1,0,0,5.791h58.74a2.9,2.9,0,0,0,.011-5.791Z" data-name="Path 1169" transform="translate(360.278 90)"/><path id="Path_1170-150" fill="#e6e6e6" d="M383.9,354.207a2.9,2.9,0,1,0,0,5.791h58.74a2.9,2.9,0,0,0,.011-5.791Z" data-name="Path 1170" transform="translate(360.278 90)"/><path id="Path_1171-151" fill="#e6e6e6" d="M383.9,369.207a2.9,2.9,0,1,0,0,5.791h58.74a2.9,2.9,0,0,0,.011-5.791Z" data-name="Path 1171" transform="translate(360.278 90)"/><path id="Path_1172-152" fill="#6c63ff" d="M507.9,339.207a2.9,2.9,0,1,0,0,5.791h58.74a2.9,2.9,0,1,0,0-5.791Z" data-name="Path 1172" transform="translate(360.278 90)"/><path id="Path_1173-153" fill="#6c63ff" d="M507.9,354.207a2.9,2.9,0,1,0,0,5.791h58.74a2.9,2.9,0,1,0,0-5.791Z" data-name="Path 1173" transform="translate(360.278 90)"/><path id="Path_1174-154" fill="#6c63ff" d="M507.9,369.207a2.9,2.9,0,1,0,0,5.791h58.74a2.9,2.9,0,0,0,0-5.791Z" data-name="Path 1174" transform="translate(360.278 90)"/><path id="Path_1175-155" fill="#e6e6e6" d="M632.9,339.207a2.9,2.9,0,1,0,0,5.791h58.74a2.9,2.9,0,1,0,0-5.791Z" data-name="Path 1175" transform="translate(360.278 90)"/><path id="Path_1176-156" fill="#e6e6e6" d="M632.9,354.207a2.9,2.9,0,1,0,0,5.791h58.74a2.9,2.9,0,1,0,0-5.791Z" data-name="Path 1176" transform="translate(360.278 90)"/><path id="Path_1177-157" fill="#e6e6e6" d="M632.9,369.207a2.9,2.9,0,1,0,0,5.791h58.74a2.9,2.9,0,0,0,0-5.791Z" data-name="Path 1177" transform="translate(360.278 90)"/><path id="Path_1178-158" fill="#e6e6e6" d="M757.4,339.207a2.9,2.9,0,1,0,0,5.791h58.74a2.9,2.9,0,1,0,0-5.791Z" data-name="Path 1178" transform="translate(360.278 90)"/><path id="Path_1179-159" fill="#e6e6e6" d="M757.4,354.207a2.9,2.9,0,1,0,0,5.791h58.74a2.9,2.9,0,1,0,0-5.791Z" data-name="Path 1179" transform="translate(360.278 90)"/><path id="Path_1180-160" fill="#e6e6e6" d="M757.4,369.207a2.9,2.9,0,1,0,0,5.791h58.74a2.9,2.9,0,0,0,0-5.791Z" data-name="Path 1180" transform="translate(360.278 90)"/><path id="Path_1181-161" fill="#e6e6e6" d="M878.9,339.207a2.9,2.9,0,1,0,0,5.791h58.74a2.9,2.9,0,0,0,0-5.791Z" data-name="Path 1181" transform="translate(360.278 90)"/><path id="Path_1182-162" fill="#e6e6e6" d="M878.9,354.207a2.9,2.9,0,1,0,0,5.791h58.74a2.9,2.9,0,0,0,0-5.791Z" data-name="Path 1182" transform="translate(360.278 90)"/><path id="Path_1183-163" fill="#e6e6e6" d="M878.9,369.207a2.9,2.9,0,1,0,0,5.791h58.74a2.9,2.9,0,0,0,0-5.791Z" data-name="Path 1183" transform="translate(360.278 90)"/><path id="Path_1184-164" fill="#e6e6e6" d="M258.9,339.207a2.9,2.9,0,1,0,0,5.791h58.74a2.9,2.9,0,0,0,.011-5.791Z" data-name="Path 1184" transform="translate(360.278 90)"/><path id="Path_1185-165" fill="#e6e6e6" d="M258.9,354.207a2.9,2.9,0,1,0,0,5.791h58.74a2.9,2.9,0,0,0,.011-5.791Z" data-name="Path 1185" transform="translate(360.278 90)"/><path id="Path_1186-166" fill="#e6e6e6" d="M258.9,369.207a2.9,2.9,0,1,0,0,5.791h58.74a2.9,2.9,0,0,0,.011-5.791Z" data-name="Path 1186" transform="translate(360.278 90)"/><circle id="Ellipse_218" cx="47.382" cy="47.382" r="47.382" fill="#6c63ff" data-name="Ellipse 218" transform="translate(850.233 281.12)"/><path id="Path_1187-167" fill="#6c63ff" d="M396.173,124.408,381.357,98.747,366.542,73.086H425.8L410.988,98.747Z" data-name="Path 1187" transform="translate(501.442 281.12)"/><circle id="Ellipse_220" cx="28.335" cy="28.335" r="28.335" fill="#6c63ff" data-name="Ellipse 220" transform="translate(1361.722 418.871)"/><circle id="Ellipse_219" cx="17" cy="17" r="17" fill="#fff" data-name="Ellipse 219" transform="translate(880.998 311.207)"/><path id="Path_1188-168" fill="#fff" d="M1028.333,366.95a1.519,1.519,0,0,1-1.074-.445l-8.2-8.2a1.519,1.519,0,0,1,2.149-2.148l6.952,6.952,12.323-16.8a1.52,1.52,0,0,1,2.451,1.8l-13.37,18.232a1.521,1.521,0,0,1-1.109.617C1028.41,366.949,1028.371,366.95,1028.333,366.95Z" data-name="Path 1188" transform="translate(360.278 90)"/><path id="Path_1189-169" fill="#6c63ff" d="M161.568,366.718a1.519,1.519,0,0,1-1.074-2.594l16.194-16.193a1.519,1.519,0,0,1,2.148,2.148l-16.194,16.193a1.514,1.514,0,0,1-1.074.445Z" data-name="Path 1189" transform="translate(360.278 90)"/><path id="Path_1190-170" fill="#6c63ff" d="M177.761,366.718a1.514,1.514,0,0,1-1.074-.445L160.494,350.08a1.519,1.519,0,0,1,2.148-2.148l16.193,16.193a1.519,1.519,0,0,1-1.074,2.594Z" data-name="Path 1190" transform="translate(360.278 90)"/><path id="Path_1202-171" fill="#e6e6e6" d="M797.193,708.88h-254a1,1,0,0,1,0-2h254a1,1,0,0,1,0,2Z" data-name="Path 1202" transform="translate(360.278 90)"/><path id="Path_1203-172" fill="#e6e6e6" d="M169.665,385.6a28.5,28.5,0,1,1,28.5-28.5A28.5,28.5,0,0,1,169.665,385.6Zm0-54a25.5,25.5,0,1,0,25.5,25.5A25.5,25.5,0,0,0,169.665,331.6Z" data-name="Path 1203" transform="translate(360.278 90)"/><g id="Group_74" data-name="Group 74" transform="translate(973.686 429.206)"><path id="Path_1145-173" fill="#ffb8b8" d="M285.528,516.911l2.695,11.678s-.9,26.949,6.288,24.254,5.39-26.05,5.39-26.05l-6.288-11.678Z" data-name="Path 1145" transform="translate(-269.055 -347.24)"/><ellipse id="Ellipse_216" cx="17.966" cy="17.966" fill="#9f616a" data-name="Ellipse 216" rx="17.966" ry="17.966" transform="translate(38.481 5.733)"/><path id="Path_1146-174" fill="#9f616a" d="M262.3,360.114l1.8,26.05-22.457,2.695s0-21.559-1.8-24.254S262.3,360.114,262.3,360.114Z" data-name="Path 1146" transform="translate(-191.932 -331.475)"/><path id="Path_1148-175" fill="#e6e6e6" d="M311.179,398.8l-19.762-.916s-6.29,1.791-10.8,18.855-5.429,44.91-5.429,44.91l10.736,50.314,13.476-1.785-5.347-48.512,9.011-32.331Z" data-name="Path 1148" transform="translate(-270.85 -335.316)"/><path id="Path_1149-176" fill="#e6e6e6" d="M197.338,404.954,207.078,408s8.212,12.244,8.206,18.532,3.546,53.9,3.546,53.9l-23.389,38.606-7.17-18.87,14.394-24.241L191.014,446.27Z" data-name="Path 1149" transform="translate(-100.421 -336.036)"/><path id="Path_1150-177" fill="#090814" d="M216.623,502.971l64.584-5.682s6.381,40.716,5.482,56.885-1.8,41.321-1.8,41.321l7.186,109.591-27.847-3.593-3.593-90.727L248.961,561.36l-13.474,62.88L226.5,705.086l-24.254-2.695,8.085-97.914S203.148,516.445,216.623,502.971Z" data-name="Path 1150" transform="translate(-186.226 -345.427)"/><path id="Path_1151-178" fill="#090814" d="M297.664,720.614l-8.085,2.695S272.512,718.818,277,730.5s17.068,9.881,17.068,9.881,15.271,11.678,21.559,2.695l-3.593-18.864Z" data-name="Path 1151" transform="translate(-276.25 -368.142)"/><path id="Path_1152-179" fill="#090814" d="M224.664,720.614l-8.085,2.695S199.512,718.818,204,730.5s17.068,9.881,17.068,9.881,15.271,11.678,21.559,2.695l-3.593-18.864Z" data-name="Path 1152" transform="translate(-137.675 -368.142)"/><path id="Path_1147-180" fill="#e6e6e6" d="M200.2,395.842l29.1-12.293s13.905-10.71,22.049-2.776l3.655,5.236s32.327,12.6,32.319,22.486L274.708,457.89s1.929,24.7,0,29.273l-20.744,5.415-11.395,1.246-33.422-1.246s-2.661-9.481,1.731-24.647l-1.731-27.165Z" data-name="Path 1147" transform="translate(-179.637 -333.279)"/><path id="Path_1153-181" fill="#090814" d="M256.664,364.169s17.188-12.277,8.185-27.01c-6.246-10.221-19.189-9.412-26.531-7.958a12.4,12.4,0,0,0-9.074,7.139c-1.228,2.865-1.228,5.729,3.683,5.729,9.822,0,4.911,7.366,4.911,7.366s6.548,1.637,4.911,7.366S256.664,364.169,256.664,364.169Z" data-name="Path 1153" transform="translate(-188.017 -328.344)"/></g></g></svg>